<svg width="100" height="100" viewBox="0 0 64 64" xmlns="http://www.w3.org/2000/svg">
  <!-- Fondo del calendario -->
  <rect x="8" y="12" width="48" height="44" rx="4" ry="4" fill="#B0B0B0"/> <!-- Gris Marengo Claro -->
  
  <!-- Encabezado del calendario -->
  <rect x="8" y="12" width="48" height="8" fill="#FF6B00"/> <!-- Naranja Intenso y Vibrante -->
  
  <!-- Detalles del calendario (días) -->
  <rect x="16" y="24" width="4" height="4" fill="#FFFFFF"/>
  <rect x="24" y="24" width="4" height="4" fill="#FFFFFF"/>
  <rect x="32" y="24" width="4" height="4" fill="#FFFFFF"/>
  <rect x="40" y="24" width="4" height="4" fill="#FFFFFF"/>
  
  <rect x="16" y="32" width="4" height="4" fill="#FFFFFF"/>
  <rect x="24" y="32" width="4" height="4" fill="#FFFFFF"/>
  <rect x="32" y="32" width="4" height="4" fill="#FFFFFF"/>
  <rect x="40" y="32" width="4" height="4" fill="#FFFFFF"/>
  
  <rect x="16" y="40" width="4" height="4" fill="#FFFFFF"/>
  <rect x="24" y="40" width="4" height="4" fill="#FFFFFF"/>
  <rect x="32" y="40" width="4" height="4" fill="#FFFFFF"/>
  <rect x="40" y="40" width="4" height="4" fill="#FFFFFF"/>
</svg>